font.ufo
<glyph name="numbersign" format="2">
  <advance width="706"/>
  <unicode hex="0023"/>
  <guideline x="73" y="360" angle="82.093"/>
  <guideline x="639" y="360" angle="82.093"/>
  <outline>
    <contour>
      <point x="123" y="0" type="line"/>
      <point x="228" y="0" type="line"/>
      <point x="341" y="730" type="line"/>
      <point x="236" y="730" type="line"/>
    </contour>
    <contour>
      <point x="366" y="0" type="line"/>
      <point x="471" y="0" type="line"/>
      <point x="584" y="730" type="line"/>
      <point x="479" y="730" type="line"/>
    </contour>
    <contour>
      <point x="35" y="198" type="line"/>
      <point x="634" y="198" type="line"/>
      <point x="634" y="285" type="line"/>
      <point x="35" y="285" type="line"/>
    </contour>
    <contour>
      <point x="72" y="445" type="line"/>
      <point x="671" y="445" type="line"/>
      <point x="671" y="532" type="line"/>
      <point x="72" y="532" type="line"/>
    </contour>
  </outline>
</glyph>
<glyph name="dollar" format="2">
  <advance width="651"/>
  <unicode hex="0024"/>
  <outline>
    <contour>
      <point x="326" y="-2" type="curve" smooth="yes"/>
      <point x="500" y="-2"/>
      <point x="604" y="78"/>
      <point x="604" y="209" type="curve" smooth="yes"/>
      <point x="604" y="335"/>
      <point x="506" y="407"/>
      <point x="356" y="421" type="curve" smooth="yes"/>
      <point x="297" y="426" type="line" smooth="yes"/>
      <point x="218" y="433"/>
      <point x="183" y="475"/>
      <point x="183" y="526" type="curve" smooth="yes"/>
      <point x="183" y="584"/>
      <point x="232" y="627"/>
      <point x="318" y="627" type="curve" smooth="yes"/>
      <point x="412" y="627"/>
      <point x="455" y="567"/>
      <point x="455" y="503" type="curve"/>
      <point x="572" y="503" type="line"/>
      <point x="572" y="646"/>
      <point x="477" y="730"/>
      <point x="318" y="730" type="curve" smooth="yes"/>
      <point x="163" y="730"/>
      <point x="65" y="657"/>
      <point x="65" y="526" type="curve" smooth="yes"/>
      <point x="65" y="399"/>
      <point x="151" y="330"/>
      <point x="286" y="318" type="curve" smooth="yes"/>
      <point x="345" y="313" type="line" smooth="yes"/>
      <point x="439" y="304"/>
      <point x="487" y="265"/>
      <point x="487" y="209" type="curve" smooth="yes"/>
      <point x="487" y="149"/>
      <point x="432" y="101"/>
      <point x="326" y="101" type="curve" smooth="yes"/>
      <point x="206" y="101"/>
      <point x="162" y="168"/>
      <point x="162" y="231" type="curve"/>
      <point x="46" y="231" type="line"/>
      <point x="46" y="88"/>
      <point x="143" y="-2"/>
    </contour>
    <contour>
      <point x="270" y="-129" type="line"/>
      <point x="377" y="-129" type="line"/>
      <point x="377" y="17" type="line"/>
      <point x="270" y="17" type="line"/>
    </contour>
    <contour>
      <point x="266" y="681" type="line"/>
      <point x="373" y="681" type="line"/>
      <point x="373" y="827" type="line"/>
      <point x="266" y="827" type="line"/>
    </contour>
  </outline>
</glyph>
<glyph name="quotesingle" format="2">
  <advance width="265"/>
  <unicode hex="0027"/>
  <outline>
    <contour>
      <point x="77" y="442" type="line"/>
      <point x="188" y="442" type="line"/>
      <point x="188" y="730" type="line"/>
      <point x="77" y="730" type="line"/>
    </contour>
  </outline>
</glyph>
<glyph name="parenleft" format="2">
  <advance width="384"/>
  <unicode hex="0028"/>
  <guideline y="-182"/>
  <outline>
    <contour>
      <point x="228" y="-182" type="curve"/>
      <point x="372" y="-182" type="line"/>
      <point x="245" y="-43"/>
      <point x="185" y="106"/>
      <point x="185" y="302" type="curve" smooth="yes"/>
      <point x="185" y="498"/>
      <point x="257" y="643"/>
      <point x="372" y="776" type="curve"/>
      <point x="230" y="776" type="line"/>
      <point x="130" y="661"/>
      <point x="61" y="517"/>
      <point x="61" y="302" type="curve" smooth="yes"/>
      <point x="61" y="87"/>
      <point x="127" y="-61"/>
    </contour>
  </outline>
</glyph>
<glyph name="period" format="2">
  <advance width="267"/>
  <unicode hex="002E"/>
  <outline>
    <contour>
      <point x="61" y="0" type="line"/>
      <point x="205" y="0" type="line"/>
      <point x="205" y="149" type="line"/>
      <point x="61" y="149" type="line"/>
    </contour>
  </outline>
</glyph>
<glyph name="slash" format="2">
  <advance width="373"/>
  <unicode hex="002F"/>
  <outline>
    <contour>
      <point x="22" y="-60" type="line"/>
      <point x="146" y="-60" type="line"/>
      <point x="351" y="780" type="line"/>
      <point x="227" y="780" type="line"/>
    </contour>
  </outline>
</glyph>
<glyph name="one" format="2">
  <advance width="423"/>
  <unicode hex="0031"/>
  <outline>
    <contour>
      <point x="191" y="0" type="line"/>
      <point x="318" y="0" type="line"/>
      <point x="318" y="730" type="line"/>
      <point x="38" y="730" type="line"/>
      <point x="38" y="620" type="line"/>
      <point x="235" y="620" type="line"/>
      <point x="191" y="654" type="line"/>
    </contour>
  </outline>
</glyph>
<glyph name="three" format="2">
  <advance width="622"/>
  <unicode hex="0033"/>
  <outline>
    <contour>
      <point x="304" y="-19" type="curve" smooth="yes"/>
      <point x="472" y="-19"/>
      <point x="569" y="87"/>
      <point x="569" y="210" type="curve" smooth="yes"/>
      <point x="569" y="224" type="line" smooth="yes"/>
      <point x="569" y="349"/>
      <point x="471" y="445"/>
      <point x="307" y="445" type="curve" smooth="yes"/>
      <point x="272" y="445"/>
      <point x="243" y="440"/>
      <point x="219" y="432" type="curve"/>
      <point x="294" y="423" type="line"/>
      <point x="536" y="588" type="line"/>
      <point x="536" y="730" type="line"/>
      <point x="69" y="730" type="line"/>
      <point x="69" y="621" type="line"/>
      <point x="395" y="621" type="line"/>
      <point x="405" y="603" type="line"/>
      <point x="152" y="427" type="line"/>
      <point x="213" y="323" type="line"/>
      <point x="234" y="339"/>
      <point x="264" y="351"/>
      <point x="305" y="351" type="curve" smooth="yes"/>
      <point x="391" y="351"/>
      <point x="445" y="297"/>
      <point x="445" y="219" type="curve" smooth="yes"/>
      <point x="445" y="141"/>
      <point x="391" y="90"/>
      <point x="304" y="90" type="curve" smooth="yes"/>
      <point x="217" y="90"/>
      <point x="163" y="139"/>
      <point x="163" y="217" type="curve"/>
      <point x="39" y="217" type="line"/>
      <point x="39" y="87"/>
      <point x="137" y="-19"/>
    </contour>
  </outline>
</glyph>
<glyph name="four" format="2">
  <advance width="656"/>
  <unicode hex="0034"/>
  <outline>
    <contour>
      <point x="41" y="158" type="line"/>
      <point x="632" y="158" type="line"/>
      <point x="632" y="259" type="line"/>
      <point x="176" y="259" type="line"/>
      <point x="165" y="278" type="line"/>
      <point x="427" y="682" type="line"/>
      <point x="332" y="749" type="line"/>
      <point x="41" y="300" type="line"/>
    </contour>
    <contour>
      <point x="423" y="0" type="line"/>
      <point x="541" y="0" type="line"/>
      <point x="541" y="521" type="line"/>
      <point x="423" y="521" type="line"/>
    </contour>
  </outline>
</glyph>
<glyph name="five" format="2">
  <advance width="633"/>
  <unicode hex="0035"/>
  <outline>
    <contour>
      <point x="321" y="-19" type="curve" smooth="yes"/>
      <point x="496" y="-19"/>
      <point x="592" y="101"/>
      <point x="592" y="227" type="curve" smooth="yes"/>
      <point x="592" y="240" type="line" smooth="yes"/>
      <point x="592" y="366"/>
      <point x="500" y="479"/>
      <point x="337" y="479" type="curve" smooth="yes"/>
      <point x="256" y="479"/>
      <point x="202" y="449"/>
      <point x="163" y="406" type="curve"/>
      <point x="195" y="397" type="line"/>
      <point x="220" y="658" type="line"/>
      <point x="178" y="621" type="line"/>
      <point x="528" y="621" type="line"/>
      <point x="528" y="730" type="line"/>
      <point x="117" y="730" type="line"/>
      <point x="80" y="331" type="line"/>
      <point x="199" y="331" type="line"/>
      <point x="225" y="361"/>
      <point x="274" y="381"/>
      <point x="322" y="381" type="curve" smooth="yes"/>
      <point x="412" y="381"/>
      <point x="468" y="317"/>
      <point x="468" y="234" type="curve" smooth="yes"/>
      <point x="468" y="150"/>
      <point x="411" y="90"/>
      <point x="321" y="90" type="curve" smooth="yes"/>
      <point x="233" y="90"/>
      <point x="175" y="147"/>
      <point x="175" y="228" type="curve"/>
      <point x="51" y="228" type="line"/>
      <point x="51" y="97"/>
      <point x="150" y="-19"/>
    </contour>
  </outline>
</glyph>
<glyph name="B" format="2">
  <advance width="686"/>
  <unicode hex="0042"/>
  <outline>
    <contour>
      <point x="201" y="-5" type="line"/>
      <point x="379" y="-5" type="line" smooth="yes"/>
      <point x="544" y="-5"/>
      <point x="628" y="69"/>
      <point x="628" y="199" type="curve" smooth="yes"/>
      <point x="628" y="213" type="line" smooth="yes"/>
      <point x="628" y="350"/>
      <point x="524" y="397"/>
      <point x="379" y="397" type="curve" smooth="yes"/>
      <point x="201" y="397" type="line"/>
      <point x="201" y="317" type="line"/>
      <point x="390" y="317" type="line" smooth="yes"/>
      <point x="462" y="317"/>
      <point x="499" y="278"/>
      <point x="499" y="210" type="curve" smooth="yes"/>
      <point x="499" y="142"/>
      <point x="461" y="101"/>
      <point x="390" y="101" type="curve" smooth="yes"/>
      <point x="201" y="101" type="line"/>
    </contour>
    <contour>
      <point x="95" y="-5" type="line"/>
      <point x="221" y="-5" type="line"/>
      <point x="221" y="735" type="line"/>
      <point x="95" y="735" type="line"/>
    </contour>
    <contour>
      <point x="201" y="339" type="line"/>
      <point x="350" y="339" type="line" smooth="yes"/>
      <point x="494" y="339"/>
      <point x="598" y="384"/>
      <point x="598" y="521" type="curve" smooth="yes"/>
      <point x="598" y="535" type="line" smooth="yes"/>
      <point x="598" y="664"/>
      <point x="513" y="735"/>
      <point x="350" y="735" type="curve" smooth="yes"/>
      <point x="201" y="735" type="line"/>
      <point x="201" y="629" type="line"/>
      <point x="363" y="629" type="line" smooth="yes"/>
      <point x="436" y="629"/>
      <point x="469" y="587"/>
      <point x="469" y="523" type="curve" smooth="yes"/>
      <point x="469" y="461"/>
      <point x="436" y="419"/>
      <point x="363" y="419" type="curve" smooth="yes"/>
      <point x="201" y="419" type="line"/>
    </contour>
  </outline>
</glyph>
<glyph name="D" format="2">
  <advance width="787"/>
  <unicode hex="0044"/>
  <anchor x="390" y="0" name="bottom"/>
  <anchor x="206" y="365" name="center"/>
  <anchor x="378" y="730" name="top"/>
  <outline>
    <contour>
      <point x="204" y="-4" type="line"/>
      <point x="355" y="-4" type="line" smooth="yes"/>
      <point x="618" y="-4"/>
      <point x="747" y="181"/>
      <point x="747" y="355" type="curve" smooth="yes"/>
      <point x="747" y="377" type="line" smooth="yes"/>
      <point x="747" y="560"/>
      <point x="618" y="735"/>
      <point x="355" y="735" type="curve" smooth="yes"/>
      <point x="204" y="735" type="line"/>
      <point x="204" y="615" type="line"/>
      <point x="364" y="615" type="line" smooth="yes"/>
      <point x="522" y="615"/>
      <point x="617" y="518"/>
      <point x="617" y="366" type="curve" smooth="yes"/>
      <point x="617" y="221"/>
      <point x="522" y="115"/>
      <point x="364" y="115" type="curve" smooth="yes"/>
      <point x="204" y="115" type="line"/>
    </contour>
    <contour>
      <point x="95" y="-4" type="line"/>
      <point x="224" y="-4" type="line"/>
      <point x="224" y="735" type="line"/>
      <point x="95" y="735" type="line"/>
    </contour>
  </outline>
</glyph>
<glyph name="H" format="2">
  <advance width="802"/>
  <unicode hex="0048"/>
  <anchor x="401" y="0" name="bottom"/>
  <anchor x="401" y="606" name="center"/>
  <anchor x="401" y="730" name="top"/>
  <outline>
    <contour>
      <point x="578" y="0" type="line"/>
      <point x="707" y="0" type="line"/>
      <point x="707" y="730" type="line"/>
      <point x="578" y="730" type="line"/>
    </contour>
    <contour>
      <point x="95" y="0" type="line"/>
      <point x="224" y="0" type="line"/>
      <point x="224" y="730" type="line"/>
      <point x="95" y="730" type="line"/>
    </contour>
    <contour>
      <point x="199" y="308" type="line"/>
      <point x="603" y="308" type="line"/>
      <point x="603" y="422" type="line"/>
      <point x="199" y="422" type="line"/>
    </contour>
  </outline>
</glyph>
<glyph name="K" format="2">
  <advance width="713"/>
  <unicode hex="004B"/>
  <anchor x="388" y="0" name="bottom"/>
  <anchor x="364" y="730" name="top"/>
  <outline>
    <contour>
      <point x="564" y="0" type="line"/>
      <point x="721" y="0" type="line"/>
      <point x="356" y="449" type="line"/>
      <point x="362" y="379" type="line"/>
      <point x="655" y="730" type="line"/>
      <point x="507" y="730" type="line"/>
      <point x="184" y="341" type="line"/>
      <point x="288" y="341" type="line"/>
    </contour>
    <contour>
      <point x="95" y="0" type="line"/>
      <point x="224" y="0" type="line"/>
      <point x="224" y="730" type="line"/>
      <point x="95" y="730" type="line"/>
    </contour>
  </outline>
</glyph>
<glyph name="L" format="2">
  <advance width="550"/>
  <unicode hex="004C"/>
  <anchor x="310" y="0" name="bottom"/>
  <anchor x="159" y="365" name="center"/>
  <anchor x="159" y="730" name="top"/>
  <anchor x="273" y="541" name="topright"/>
  <outline>
    <contour>
      <point x="95" y="0" type="line"/>
      <point x="224" y="0" type="line"/>
      <point x="224" y="730" type="line"/>
      <point x="95" y="730" type="line"/>
    </contour>
    <contour>
      <point x="204" y="0" type="line"/>
      <point x="524" y="0" type="line"/>
      <point x="524" y="114" type="line"/>
      <point x="204" y="114" type="line"/>
    </contour>
  </outline>
</glyph>
<glyph name="R" format="2">
  <advance width="714"/>
  <unicode hex="0052"/>
  <anchor x="376" y="0" name="bottom"/>
  <anchor x="342" y="730" name="top"/>
  <outline>
    <contour>
      <point x="95" y="0" type="line"/>
      <point x="224" y="0" type="line"/>
      <point x="224" y="735" type="line"/>
      <point x="95" y="735" type="line"/>
    </contour>
    <contour>
      <point x="542" y="0" type="line"/>
      <point x="694" y="0" type="line"/>
      <point x="458" y="320" type="line"/>
      <point x="313" y="320" type="line"/>
    </contour>
    <contour>
      <point x="183" y="250" type="line"/>
      <point x="356" y="250" type="line" smooth="yes"/>
      <point x="526" y="250"/>
      <point x="636" y="324"/>
      <point x="636" y="484" type="curve" smooth="yes"/>
      <point x="636" y="500" type="line" smooth="yes"/>
      <point x="636" y="660"/>
      <point x="527" y="735"/>
      <point x="356" y="735" type="curve" smooth="yes"/>
      <point x="183" y="735" type="line"/>
      <point x="183" y="624" type="line"/>
      <point x="372" y="624" type="line" smooth="yes"/>
      <point x="454" y="624"/>
      <point x="506" y="569"/>
      <point x="506" y="490" type="curve" smooth="yes"/>
      <point x="506" y="411"/>
      <point x="454" y="357"/>
      <point x="372" y="357" type="curve" smooth="yes"/>
      <point x="183" y="357" type="line"/>
    </contour>
  </outline>
</glyph>
<glyph name="S" format="2">
  <advance width="679"/>
  <unicode hex="0053"/>
  <anchor x="339" y="0" name="bottom"/>
  <anchor x="335" y="730" name="top"/>
  <outline>
    <contour>
      <point x="340" y="-19" type="curve" smooth="yes"/>
      <point x="518" y="-19"/>
      <point x="633" y="75"/>
      <point x="633" y="212" type="curve" smooth="yes"/>
      <point x="633" y="338"/>
      <point x="531" y="411"/>
      <point x="377" y="425" type="curve" smooth="yes"/>
      <point x="308" y="431" type="line" smooth="yes"/>
      <point x="233" y="437"/>
      <point x="198" y="477"/>
      <point x="198" y="525" type="curve" smooth="yes"/>
      <point x="198" y="585"/>
      <point x="242" y="638"/>
      <point x="335" y="638" type="curve" smooth="yes"/>
      <point x="429" y="638"/>
      <point x="473" y="580"/>
      <point x="473" y="519" type="curve"/>
      <point x="600" y="519" type="line"/>
      <point x="600" y="660"/>
      <point x="496" y="751"/>
      <point x="335" y="751" type="curve" smooth="yes"/>
      <point x="176" y="751"/>
      <point x="72" y="662"/>
      <point x="72" y="525" type="curve" smooth="yes"/>
      <point x="72" y="405"/>
      <point x="160" y="327"/>
      <point x="297" y="316" type="curve" smooth="yes"/>
      <point x="366" y="310" type="line" smooth="yes"/>
      <point x="460" y="301"/>
      <point x="506" y="266"/>
      <point x="506" y="212" type="curve" smooth="yes"/>
      <point x="506" y="147"/>
      <point x="453" y="94"/>
      <point x="340" y="94" type="curve" smooth="yes"/>
      <point x="216" y="94"/>
      <point x="171" y="157"/>
      <point x="171" y="219" type="curve"/>
      <point x="44" y="219" type="line"/>
      <point x="44" y="81"/>
      <point x="150" y="-19"/>
    </contour>
  </outline>
</glyph>
<glyph name="W" format="2">
  <advance width="1056"/>
  <unicode hex="0057"/>
  <anchor x="535" y="0" name="bottom"/>
  <anchor x="529" y="730" name="top"/>
  <outline>
    <contour>
      <point x="215" y="0" type="line"/>
      <point x="420" y="0" type="line"/>
      <point x="571" y="701" type="line"/>
      <point x="459" y="701" type="line"/>
      <point x="334" y="85" type="line"/>
      <point x="380" y="109" type="line"/>
      <point x="274" y="109" type="line"/>
      <point x="316" y="85" type="line"/>
      <point x="159" y="730" type="line"/>
      <point x="26" y="730" type="line"/>
    </contour>
    <contour>
      <point x="652" y="0" type="line"/>
      <point x="860" y="0" type="line"/>
      <point x="1030" y="730" type="line"/>
      <point x="903" y="730" type="line"/>
      <point x="764" y="85" type="line"/>
      <point x="807" y="109" type="line"/>
      <point x="702" y="109" type="line"/>
      <point x="747" y="85" type="line"/>
      <point x="604" y="701" type="line"/>
      <point x="487" y="701" type="line"/>
    </contour>
  </outline>
</glyph>
<glyph name="X" format="2">
  <advance width="708"/>
  <unicode hex="0058"/>
  <outline>
    <contour>
      <point x="13" y="0" type="line"/>
      <point x="151" y="0" type="line"/>
      <point x="337" y="284" type="line"/>
      <point x="357" y="284" type="line"/>
      <point x="551" y="0" type="line"/>
      <point x="694" y="0" type="line"/>
      <point x="427" y="386" type="line"/>
      <point x="429" y="369" type="line"/>
      <point x="673" y="730" type="line"/>
      <point x="535" y="730" type="line"/>
      <point x="366" y="474" type="line"/>
      <point x="347" y="474" type="line"/>
      <point x="179" y="730" type="line"/>
      <point x="35" y="730" type="line"/>
      <point x="275" y="372" type="line"/>
      <point x="274" y="389" type="line"/>
    </contour>
  </outline>
</glyph>
<glyph name="underscore" format="2">
  <advance width="582"/>
  <unicode hex="005F"/>
  <outline>
    <contour>
      <point x="0" y="-150" type="line"/>
      <point x="582" y="-150" type="line"/>
      <point x="582" y="-56" type="line"/>
      <point x="0" y="-56" type="line"/>
    </contour>
  </outline>
</glyph>
<glyph name="b" format="2">
  <advance width="696"/>
  <unicode hex="0062"/>
  <outline>
    <contour>
      <point x="391" y="-18" type="curve" smooth="yes"/>
      <point x="548" y="-18"/>
      <point x="650" y="107"/>
      <point x="650" y="262" type="curve" smooth="yes"/>
      <point x="650" y="282" type="line" smooth="yes"/>
      <point x="650" y="437"/>
      <point x="551" y="558"/>
      <point x="399" y="558" type="curve" smooth="yes"/>
      <point x="274" y="558"/>
      <point x="179" y="475"/>
      <point x="173" y="306" type="curve"/>
      <point x="209" y="368" type="line"/>
      <point x="209" y="730" type="line"/>
      <point x="83" y="730" type="line"/>
      <point x="83" y="0" type="line"/>
      <point x="183" y="0" type="line"/>
      <point x="183" y="227" type="line"/>
      <point x="160" y="227" type="line"/>
      <point x="165" y="71"/>
      <point x="257" y="-18"/>
    </contour>
    <contour>
      <point x="365" y="89" type="curve" smooth="yes"/>
      <point x="282" y="89"/>
      <point x="205" y="147"/>
      <point x="205" y="246" type="curve" smooth="yes"/>
      <point x="205" y="288" type="line" smooth="yes"/>
      <point x="205" y="390"/>
      <point x="279" y="451"/>
      <point x="365" y="451" type="curve" smooth="yes"/>
      <point x="460" y="451"/>
      <point x="524" y="380"/>
      <point x="524" y="272" type="curve" smooth="yes"/>
      <point x="524" y="164"/>
      <point x="460" y="89"/>
    </contour>
  </outline>
</glyph>
<glyph name="f" format="2">
  <advance width="380"/>
  <unicode hex="0066"/>
  <outline>
    <contour>
      <point x="96" y="0" type="line"/>
      <point x="215" y="0" type="line"/>
      <point x="215" y="570" type="line" smooth="yes"/>
      <point x="215" y="613"/>
      <point x="239" y="638"/>
      <point x="282" y="638" type="curve" smooth="yes"/>
      <point x="362" y="638" type="line"/>
      <point x="362" y="737" type="line"/>
      <point x="294" y="737" type="line" smooth="yes"/>
      <point x="164" y="737"/>
      <point x="96" y="680"/>
      <point x="96" y="557" type="curve" smooth="yes"/>
    </contour>
    <contour>
      <point x="26" y="439" type="line"/>
      <point x="371" y="439" type="line"/>
      <point x="371" y="532" type="line"/>
      <point x="26" y="532" type="line"/>
    </contour>
  </outline>
</glyph>
<glyph name="g" format="2">
  <advance width="680"/>
  <unicode hex="0067"/>
  <anchor x="296" y="-300" name="bottom"/>
  <anchor x="334" y="540" name="top"/>
  <outline>
    <contour>
      <point x="292" y="-213" type="curve" smooth="yes"/>
      <point x="510" y="-213"/>
      <point x="603" y="-133"/>
      <point x="603" y="64" type="curve" smooth="yes"/>
      <point x="603" y="540" type="line"/>
      <point x="504" y="540" type="line"/>
      <point x="504" y="307" type="line"/>
      <point x="529" y="310" type="line"/>
      <point x="523" y="469"/>
      <point x="435" y="558"/>
      <point x="302" y="558" type="curve" smooth="yes"/>
      <point x="150" y="558"/>
      <point x="46" y="442"/>
      <point x="46" y="289" type="curve" smooth="yes"/>
      <point x="46" y="269" type="line" smooth="yes"/>
      <point x="46" y="117"/>
      <point x="145" y="-4"/>
      <point x="295" y="-4" type="curve" smooth="yes"/>
      <point x="419" y="-4"/>
      <point x="509" y="77"/>
      <point x="515" y="233" type="curve"/>
      <point x="484" y="162" type="line"/>
      <point x="484" y="57" type="line" smooth="yes"/>
      <point x="484" y="-58"/>
      <point x="430" y="-107"/>
      <point x="292" y="-107" type="curve" smooth="yes"/>
      <point x="245" y="-107"/>
      <point x="187" y="-102"/>
      <point x="140" y="-96" type="curve"/>
      <point x="140" y="-202" type="line"/>
      <point x="185" y="-209"/>
      <point x="240" y="-213"/>
    </contour>
    <contour>
      <point x="328" y="106" type="curve" smooth="yes"/>
      <point x="237" y="106"/>
      <point x="172" y="172"/>
      <point x="172" y="279" type="curve" smooth="yes"/>
      <point x="172" y="384"/>
      <point x="235" y="453"/>
      <point x="329" y="453" type="curve" smooth="yes"/>
      <point x="410" y="453"/>
      <point x="483" y="399"/>
      <point x="483" y="303" type="curve" smooth="yes"/>
      <point x="483" y="265" type="line" smooth="yes"/>
      <point x="483" y="165"/>
      <point x="413" y="106"/>
    </contour>
  </outline>
</glyph>
<glyph name="j" format="2">
  <advance width="327"/>
  <unicode hex="006A"/>
  <outline>
    <contour>
      <point x="1" y="-205" type="line"/>
      <point x="37" y="-205" type="line" smooth="yes"/>
      <point x="185" y="-205"/>
      <point x="246" y="-154"/>
      <point x="246" y="-9" type="curve" smooth="yes"/>
      <point x="246" y="540" type="line"/>
      <point x="124" y="540" type="line"/>
      <point x="124" y="-18" type="line" smooth="yes"/>
      <point x="124" y="-68"/>
      <point x="96" y="-96"/>
      <point x="47" y="-96" type="curve" smooth="yes"/>
      <point x="1" y="-96" type="line"/>
    </contour>
    <contour>
      <point x="44" y="445" type="line"/>
      <point x="246" y="445" type="line"/>
      <point x="246" y="540" type="line"/>
      <point x="44" y="540" type="line"/>
    </contour>
    <contour>
      <point x="163" y="617" type="curve" smooth="yes"/>
      <point x="214" y="617"/>
      <point x="237" y="646"/>
      <point x="237" y="688" type="curve" smooth="yes"/>
      <point x="237" y="729"/>
      <point x="214" y="758"/>
      <point x="163" y="758" type="curve" smooth="yes"/>
      <point x="112" y="758"/>
      <point x="88" y="729"/>
      <point x="88" y="688" type="curve" smooth="yes"/>
      <point x="88" y="646"/>
      <point x="112" y="617"/>
    </contour>
  </outline>
</glyph>
<glyph name="k" format="2">
  <advance width="604"/>
  <unicode hex="006B"/>
  <anchor x="331" y="0" name="bottom"/>
  <anchor x="146" y="730" name="top"/>
  <outline>
    <contour>
      <point x="459" y="0" type="line"/>
      <point x="602" y="0" type="line"/>
      <point x="344" y="340" type="line"/>
      <point x="339" y="276" type="line"/>
      <point x="555" y="540" type="line"/>
      <point x="423" y="540" type="line"/>
      <point x="188" y="252" type="line"/>
      <point x="272" y="252" type="line"/>
    </contour>
    <contour>
      <point x="83" y="0" type="line"/>
      <point x="209" y="0" type="line"/>
      <point x="209" y="730" type="line"/>
      <point x="83" y="730" type="line"/>
    </contour>
  </outline>
</glyph>
<glyph name="l" format="2">
  <advance width="299"/>
  <unicode hex="006C"/>
  <anchor x="153" y="0" name="bottom"/>
  <anchor x="153" y="480" name="center"/>
  <anchor x="126" y="730" name="top"/>
  <anchor x="210" y="534" name="topright"/>
  <outline>
    <contour>
      <point x="90" y="0" type="line"/>
      <point x="216" y="0" type="line"/>
      <point x="216" y="730" type="line"/>
      <point x="90" y="730" type="line"/>
    </contour>
    <contour>
      <point x="20" y="634" type="line"/>
      <point x="216" y="634" type="line"/>
      <point x="216" y="730" type="line"/>
      <point x="20" y="730" type="line"/>
    </contour>
  </outline>
</glyph>
<glyph name="m" format="2">
  <advance width="975"/>
  <unicode hex="006D"/>
  <outline>
    <contour>
      <point x="83" y="0" type="line"/>
      <point x="209" y="0" type="line"/>
      <point x="209" y="319" type="line" smooth="yes"/>
      <point x="209" y="395"/>
      <point x="253" y="443"/>
      <point x="322" y="443" type="curve" smooth="yes"/>
      <point x="390" y="443"/>
      <point x="429" y="397"/>
      <point x="429" y="324" type="curve" smooth="yes"/>
      <point x="429" y="0" type="line"/>
      <point x="555" y="0" type="line"/>
      <point x="555" y="319" type="line" smooth="yes"/>
      <point x="555" y="395"/>
      <point x="599" y="443"/>
      <point x="668" y="443" type="curve" smooth="yes"/>
      <point x="736" y="443"/>
      <point x="775" y="397"/>
      <point x="775" y="324" type="curve" smooth="yes"/>
      <point x="775" y="0" type="line"/>
      <point x="901" y="0" type="line"/>
      <point x="901" y="308" type="line" smooth="yes"/>
      <point x="901" y="469"/>
      <point x="836" y="557"/>
      <point x="711" y="557" type="curve" smooth="yes"/>
      <point x="706" y="557" type="line" smooth="yes"/>
      <point x="581" y="557"/>
      <point x="518" y="469"/>
      <point x="518" y="308" type="curve"/>
      <point x="551" y="308" type="line"/>
      <point x="551" y="469"/>
      <point x="489" y="557"/>
      <point x="364" y="557" type="curve" smooth="yes"/>
      <point x="359" y="557" type="line" smooth="yes"/>
      <point x="234" y="557"/>
      <point x="172" y="469"/>
      <point x="172" y="308" type="curve"/>
      <point x="183" y="308" type="line"/>
      <point x="183" y="540" type="line"/>
      <point x="83" y="540" type="line"/>
    </contour>
  </outline>
</glyph>
<glyph name="o" format="2">
  <advance width="678"/>
  <unicode hex="006F"/>
  <note>
o
</note>
  <anchor x="339" y="0" name="bottom"/>
  <anchor x="339" y="267" name="center"/>
  <anchor x="455" y="11" name="ogonek"/>
  <anchor x="339" y="540" name="top"/>
  <outline>
    <contour>
      <point x="339" y="-19" type="curve" smooth="yes"/>
      <point x="528" y="-19"/>
      <point x="632" y="118"/>
      <point x="632" y="259" type="curve" smooth="yes"/>
      <point x="632" y="279" type="line" smooth="yes"/>
      <point x="632" y="425"/>
      <point x="522" y="559"/>
      <point x="339" y="559" type="curve" smooth="yes"/>
      <point x="156" y="559"/>
      <point x="46" y="425"/>
      <point x="46" y="279" type="curve" smooth="yes"/>
      <point x="46" y="259" type="line" smooth="yes"/>
      <point x="46" y="118"/>
      <point x="150" y="-19"/>
    </contour>
    <contour>
      <point x="339" y="90" type="curve" smooth="yes"/>
      <point x="232" y="90"/>
      <point x="172" y="168"/>
      <point x="172" y="269" type="curve" smooth="yes"/>
      <point x="172" y="373"/>
      <point x="235" y="450"/>
      <point x="339" y="450" type="curve" smooth="yes"/>
      <point x="443" y="450"/>
      <point x="506" y="373"/>
      <point x="506" y="269" type="curve" smooth="yes"/>
      <point x="506" y="168"/>
      <point x="446" y="90"/>
    </contour>
  </outline>
</glyph>
<glyph name="p" format="2">
  <advance width="696"/>
  <unicode hex="0070"/>
  <outline>
    <contour>
      <point x="83" y="-200" type="line"/>
      <point x="209" y="-200" type="line"/>
      <point x="209" y="157" type="line"/>
      <point x="165" y="228" type="line"/>
      <point x="172" y="54"/>
      <point x="276" y="-18"/>
      <point x="394" y="-18" type="curve" smooth="yes"/>
      <point x="550" y="-18"/>
      <point x="650" y="106"/>
      <point x="650" y="260" type="curve" smooth="yes"/>
      <point x="650" y="281" type="line" smooth="yes"/>
      <point x="650" y="435"/>
      <point x="549" y="558"/>
      <point x="395" y="558" type="curve" smooth="yes"/>
      <point x="270" y="558"/>
      <point x="173" y="476"/>
      <point x="165" y="308" type="curve"/>
      <point x="183" y="307" type="line"/>
      <point x="183" y="540" type="line"/>
      <point x="83" y="540" type="line"/>
    </contour>
    <contour>
      <point x="365" y="89" type="curve" smooth="yes"/>
      <point x="282" y="89"/>
      <point x="205" y="147"/>
      <point x="205" y="246" type="curve" smooth="yes"/>
      <point x="205" y="288" type="line" smooth="yes"/>
      <point x="205" y="390"/>
      <point x="279" y="451"/>
      <point x="365" y="451" type="curve" smooth="yes"/>
      <point x="461" y="451"/>
      <point x="524" y="378"/>
      <point x="524" y="270" type="curve" smooth="yes"/>
      <point x="524" y="163"/>
      <point x="460" y="89"/>
    </contour>
  </outline>
</glyph>
<glyph name="t" format="2">
  <advance width="429"/>
  <unicode hex="0074"/>
  <anchor x="242" y="0" name="bottom"/>
  <anchor x="199" y="290" name="center"/>
  <anchor x="158" y="696" name="top"/>
  <anchor x="214" y="576" name="topright"/>
  <outline>
    <contour>
      <point x="310" y="-7" type="curve" smooth="yes"/>
      <point x="390" y="-7" type="line"/>
      <point x="390" y="102" type="line"/>
      <point x="302" y="102" type="line" smooth="yes"/>
      <point x="248" y="102"/>
      <point x="217" y="133"/>
      <point x="217" y="187" type="curve" smooth="yes"/>
      <point x="217" y="696" type="line"/>
      <point x="99" y="696" type="line"/>
      <point x="98" y="197" type="line" smooth="yes"/>
      <point x="98" y="43"/>
      <point x="170" y="-7"/>
    </contour>
    <contour>
      <point x="11" y="447" type="line"/>
      <point x="390" y="447" type="line"/>
      <point x="390" y="540" type="line"/>
      <point x="11" y="540" type="line"/>
    </contour>
  </outline>
</glyph>
<glyph name="w" format="2">
  <advance width="882"/>
  <unicode hex="0077"/>
  <anchor x="444" y="0" name="bottom"/>
  <anchor x="441" y="540" name="top"/>
  <outline>
    <contour>
      <point x="260" y="0" type="line"/>
      <point x="355" y="0" type="line"/>
      <point x="463" y="520" type="line"/>
      <point x="412" y="520" type="line"/>
      <point x="535" y="0" type="line"/>
      <point x="636" y="0" type="line"/>
      <point x="515" y="522" type="line"/>
      <point x="364" y="522" type="line"/>
    </contour>
    <contour>
      <point x="216" y="0" type="line"/>
      <point x="327" y="0" type="line"/>
      <point x="326" y="103" type="line"/>
      <point x="216" y="103" type="line"/>
    </contour>
    <contour>
      <point x="171" y="0" type="line"/>
      <point x="286" y="0" type="line"/>
      <point x="144" y="540" type="line"/>
      <point x="22" y="540" type="line"/>
    </contour>
    <contour>
      <point x="565" y="0" type="line"/>
      <point x="676" y="0" type="line"/>
      <point x="676" y="103" type="line"/>
      <point x="565" y="103" type="line"/>
    </contour>
    <contour>
      <point x="610" y="0" type="line"/>
      <point x="718" y="0" type="line"/>
      <point x="850" y="540" type="line"/>
      <point x="735" y="540" type="line"/>
    </contour>
  </outline>
</glyph>
<glyph name="x" format="2">
  <advance width="579"/>
  <unicode hex="0078"/>
  <outline>
    <contour>
      <point x="20" y="0" type="line"/>
      <point x="149" y="0" type="line"/>
      <point x="278" y="209" type="line"/>
      <point x="292" y="209" type="line"/>
      <point x="428" y="0" type="line"/>
      <point x="565" y="0" type="line"/>
      <point x="374" y="287" type="line"/>
      <point x="371" y="268" type="line"/>
      <point x="532" y="540" type="line"/>
      <point x="404" y="540" type="line"/>
      <point x="295" y="346" type="line"/>
      <point x="280" y="346" type="line"/>
      <point x="165" y="540" type="line"/>
      <point x="28" y="540" type="line"/>
      <point x="198" y="265" type="line"/>
      <point x="202" y="287" type="line"/>
    </contour>
  </outline>
</glyph>
<glyph name="braceleft" format="2">
  <advance width="384"/>
  <unicode hex="007B"/>
  <guideline x="10" y="297" angle="0.0"/>
  <guideline y="-182"/>
  <outline>
    <contour>
      <point x="319" y="-182" type="curve" smooth="yes"/>
      <point x="343" y="-182" type="line"/>
      <point x="343" y="-79" type="line"/>
      <point x="319" y="-79" type="line" smooth="yes"/>
      <point x="267" y="-79"/>
      <point x="241" y="-49"/>
      <point x="241" y="8" type="curve" smooth="yes"/>
      <point x="241" y="177" type="line" smooth="yes"/>
      <point x="241" y="251"/>
      <point x="207" y="286"/>
      <point x="143" y="294" type="curve"/>
      <point x="143" y="304" type="line"/>
      <point x="207" y="312"/>
      <point x="241" y="347"/>
      <point x="241" y="421" type="curve" smooth="yes"/>
      <point x="241" y="586" type="line" smooth="yes"/>
      <point x="241" y="643"/>
      <point x="267" y="673"/>
      <point x="319" y="673" type="curve" smooth="yes"/>
      <point x="343" y="673" type="line"/>
      <point x="343" y="776" type="line"/>
      <point x="319" y="776" type="line" smooth="yes"/>
      <point x="199" y="776"/>
      <point x="121" y="712"/>
      <point x="121" y="585" type="curve" smooth="yes"/>
      <point x="121" y="419" type="line" smooth="yes"/>
      <point x="121" y="378"/>
      <point x="94" y="356"/>
      <point x="50" y="356" type="curve"/>
      <point x="50" y="242" type="line"/>
      <point x="94" y="242"/>
      <point x="121" y="220"/>
      <point x="121" y="179" type="curve" smooth="yes"/>
      <point x="121" y="9" type="line" smooth="yes"/>
      <point x="121" y="-118"/>
      <point x="199" y="-182"/>
    </contour>
  </outline>
</glyph>
<glyph name="yen" format="2">
  <advance width="644"/>
  <unicode hex="00A5"/>
  <outline>
    <contour>
      <point x="237" y="303" type="line"/>
      <point x="422" y="303" type="line"/>
      <point x="625" y="730" type="line"/>
      <point x="500" y="730" type="line"/>
      <point x="344" y="387" type="line"/>
      <point x="380" y="395" type="line"/>
      <point x="286" y="395" type="line"/>
      <point x="321" y="387" type="line"/>
      <point x="151" y="730" type="line"/>
      <point x="19" y="730" type="line"/>
    </contour>
    <contour>
      <point x="271" y="0" type="line"/>
      <point x="388" y="0" type="line"/>
      <point x="388" y="325" type="line"/>
      <point x="271" y="325" type="line"/>
    </contour>
    <contour>
      <point x="59" y="151" type="line"/>
      <point x="598" y="151" type="line"/>
      <point x="598" y="224" type="line"/>
      <point x="59" y="224" type="line"/>
    </contour>
    <contour>
      <point x="59" y="303" type="line"/>
      <point x="598" y="303" type="line"/>
      <point x="598" y="376" type="line"/>
      <point x="59" y="376" type="line"/>
    </contour>
  </outline>
</glyph>
<glyph name="copyright" format="2">
  <advance width="718"/>
  <unicode hex="00A9"/>
  <outline>
    <contour>
      <point x="359" y="113" type="curve" smooth="yes"/>
      <point x="576" y="113"/>
      <point x="671" y="282"/>
      <point x="671" y="422" type="curve" smooth="yes"/>
      <point x="671" y="440" type="line" smooth="yes"/>
      <point x="671" y="585"/>
      <point x="572" y="747"/>
      <point x="359" y="747" type="curve" smooth="yes"/>
      <point x="146" y="747"/>
      <point x="47" y="585"/>
      <point x="47" y="440" type="curve" smooth="yes"/>
      <point x="47" y="422" type="line" smooth="yes"/>
      <point x="47" y="282"/>
      <point x="142" y="113"/>
    </contour>
    <contour>
      <point x="359" y="167" type="curve" smooth="yes"/>
      <point x="204" y="167"/>
      <point x="107" y="290"/>
      <point x="107" y="430" type="curve" smooth="yes"/>
      <point x="107" y="575"/>
      <point x="204" y="693"/>
      <point x="359" y="693" type="curve" smooth="yes"/>
      <point x="514" y="693"/>
      <point x="611" y="575"/>
      <point x="611" y="430" type="curve" smooth="yes"/>
      <point x="611" y="290"/>
      <point x="514" y="167"/>
    </contour>
    <contour>
      <point x="363" y="244" type="curve" smooth="yes"/>
      <point x="453" y="244"/>
      <point x="522" y="299"/>
      <point x="527" y="385" type="curve"/>
      <point x="443" y="385" type="line"/>
      <point x="439" y="345"/>
      <point x="411" y="319"/>
      <point x="365" y="319" type="curve" smooth="yes"/>
      <point x="301" y="319"/>
      <point x="279" y="365"/>
      <point x="279" y="429" type="curve" smooth="yes"/>
      <point x="279" y="494"/>
      <point x="303" y="538"/>
      <point x="365" y="538" type="curve" smooth="yes"/>
      <point x="411" y="538"/>
      <point x="436" y="512"/>
      <point x="441" y="475" type="curve"/>
      <point x="524" y="475" type="line"/>
      <point x="518" y="559"/>
      <point x="453" y="613"/>
      <point x="363" y="613" type="curve" smooth="yes"/>
      <point x="247" y="613"/>
      <point x="191" y="526"/>
      <point x="191" y="435" type="curve" smooth="yes"/>
      <point x="191" y="422" type="line" smooth="yes"/>
      <point x="191" y="336"/>
      <point x="242" y="244"/>
    </contour>
  </outline>
</glyph>
<glyph name="degree" format="2">
  <advance width="395"/>
  <unicode hex="00B0"/>
  <outline>
    <contour>
      <point x="198" y="392" type="curve" smooth="yes"/>
      <point x="300" y="392"/>
      <point x="371" y="468"/>
      <point x="371" y="561" type="curve" smooth="yes"/>
      <point x="371" y="653"/>
      <point x="300" y="730"/>
      <point x="198" y="730" type="curve" smooth="yes"/>
      <point x="95" y="730"/>
      <point x="25" y="653"/>
      <point x="25" y="561" type="curve" smooth="yes"/>
      <point x="25" y="468"/>
      <point x="95" y="392"/>
    </contour>
    <contour>
      <point x="198" y="477" type="curve" smooth="yes"/>
      <point x="146" y="477"/>
      <point x="116" y="515"/>
      <point x="116" y="561" type="curve" smooth="yes"/>
      <point x="116" y="606"/>
      <point x="146" y="644"/>
      <point x="198" y="644" type="curve" smooth="yes"/>
      <point x="249" y="644"/>
      <point x="279" y="606"/>
      <point x="279" y="561" type="curve" smooth="yes"/>
      <point x="279" y="515"/>
      <point x="249" y="477"/>
    </contour>
  </outline>
</glyph>
<glyph name="multiply" format="2">
  <advance width="593"/>
  <unicode hex="00D7"/>
  <outline>
    <contour>
      <point x="462" y="106" type="line"/>
      <point x="58" y="509" type="line"/>
      <point x="131" y="583" type="line"/>
      <point x="535" y="180" type="line"/>
    </contour>
    <contour>
      <point x="127" y="106" type="line"/>
      <point x="58" y="176" type="line"/>
      <point x="466" y="583" type="line"/>
      <point x="535" y="513" type="line"/>
    </contour>
  </outline>
</glyph>
<glyph name="germandbls" format="2">
  <advance width="647"/>
  <unicode hex="00DF"/>
  <outline>
    <contour>
      <point x="368" y="-13" type="curve" smooth="yes"/>
      <point x="511" y="-13"/>
      <point x="611" y="66"/>
      <point x="611" y="200" type="curve" smooth="yes"/>
      <point x="611" y="327"/>
      <point x="520" y="411"/>
      <point x="350" y="411" type="curve"/>
      <point x="347" y="375" type="line"/>
      <point x="475" y="375"/>
      <point x="545" y="445"/>
      <point x="545" y="546" type="curve" smooth="yes"/>
      <point x="545" y="657"/>
      <point x="461" y="745"/>
      <point x="323" y="745" type="curve" smooth="yes"/>
      <point x="319" y="745" type="line" smooth="yes"/>
      <point x="173" y="745"/>
      <point x="89" y="653"/>
      <point x="89" y="498" type="curve" smooth="yes"/>
      <point x="89" y="0" type="line"/>
      <point x="215" y="0" type="line"/>
      <point x="215" y="510" type="line" smooth="yes"/>
      <point x="215" y="587"/>
      <point x="254" y="641"/>
      <point x="321" y="641" type="curve" smooth="yes"/>
      <point x="386" y="641"/>
      <point x="419" y="592"/>
      <point x="419" y="539" type="curve" smooth="yes"/>
      <point x="419" y="487"/>
      <point x="389" y="439"/>
      <point x="325" y="439" type="curve" smooth="yes"/>
      <point x="299" y="439" type="line"/>
      <point x="299" y="343" type="line"/>
      <point x="339" y="343" type="line" smooth="yes"/>
      <point x="434" y="343"/>
      <point x="485" y="283"/>
      <point x="485" y="208" type="curve" smooth="yes"/>
      <point x="485" y="139"/>
      <point x="442" y="92"/>
      <point x="361" y="92" type="curve" smooth="yes"/>
      <point x="335" y="92"/>
      <point x="299" y="96"/>
      <point x="273" y="102" type="curve"/>
      <point x="273" y="-2" type="line"/>
      <point x="298" y="-8"/>
      <point x="333" y="-13"/>
    </contour>
    <contour>
      <point x="29" y="428" type="line"/>
      <point x="119" y="428" type="line"/>
      <point x="119" y="524" type="line"/>
      <point x="29" y="524" type="line"/>
    </contour>
  </outline>
</glyph>
<glyph name="eth" format="2">
  <advance width="660"/>
  <unicode hex="00F0"/>
  <guideline x="513" y="364" angle="180.0"/>
  <outline>
    <contour>
      <point x="331" y="-19" type="curve" smooth="yes"/>
      <point x="525" y="-19"/>
      <point x="612" y="114"/>
      <point x="612" y="309" type="curve" smooth="yes"/>
      <point x="612" y="335" type="line" smooth="yes"/>
      <point x="612" y="607"/>
      <point x="522" y="740"/>
      <point x="298" y="740" type="curve" smooth="yes"/>
      <point x="257" y="740"/>
      <point x="218" y="737"/>
      <point x="179" y="731" type="curve"/>
      <point x="179" y="634" type="line"/>
      <point x="218" y="640"/>
      <point x="257" y="643"/>
      <point x="299" y="643" type="curve" smooth="yes"/>
      <point x="360" y="643"/>
      <point x="401" y="631"/>
      <point x="430" y="610" type="curve" smooth="yes"/>
      <point x="482" y="573"/>
      <point x="505" y="492"/>
      <point x="507" y="356" type="curve"/>
      <point x="518" y="356" type="line"/>
      <point x="506" y="449"/>
      <point x="425" y="513"/>
      <point x="307" y="513" type="curve" smooth="yes"/>
      <point x="145" y="513"/>
      <point x="46" y="400"/>
      <point x="46" y="260" type="curve" smooth="yes"/>
      <point x="46" y="241" type="line" smooth="yes"/>
      <point x="46" y="108"/>
      <point x="138" y="-19"/>
    </contour>
    <contour>
      <point x="331" y="90" type="curve" smooth="yes"/>
      <point x="227" y="90"/>
      <point x="172" y="153"/>
      <point x="172" y="251" type="curve" smooth="yes"/>
      <point x="172" y="351"/>
      <point x="229" y="413"/>
      <point x="330" y="413" type="curve" smooth="yes"/>
      <point x="431" y="413"/>
      <point x="491" y="351"/>
      <point x="491" y="251" type="curve" smooth="yes"/>
      <point x="491" y="153"/>
      <point x="435" y="90"/>
    </contour>
    <contour>
      <point x="370" y="524" type="line"/>
      <point x="600" y="728" type="line"/>
      <point x="556" y="778" type="line"/>
      <point x="326" y="573" type="line"/>
    </contour>
  </outline>
</glyph>
<glyph name="thorn" format="2">
  <advance width="696"/>
  <unicode hex="00FE"/>
  <outline>
    <contour>
      <point x="83" y="-200" type="line"/>
      <point x="209" y="-200" type="line"/>
      <point x="209" y="157" type="line"/>
      <point x="165" y="228" type="line"/>
      <point x="172" y="55"/>
      <point x="273" y="-17"/>
      <point x="396" y="-17" type="curve" smooth="yes"/>
      <point x="550" y="-17"/>
      <point x="650" y="100"/>
      <point x="650" y="259" type="curve" smooth="yes"/>
      <point x="650" y="280" type="line" smooth="yes"/>
      <point x="650" y="442"/>
      <point x="555" y="557"/>
      <point x="404" y="557" type="curve" smooth="yes"/>
      <point x="277" y="557"/>
      <point x="186" y="475"/>
      <point x="178" y="319" type="curve"/>
      <point x="209" y="350" type="line"/>
      <point x="209" y="730" type="line"/>
      <point x="83" y="730" type="line"/>
    </contour>
    <contour>
      <point x="365" y="90" type="curve" smooth="yes"/>
      <point x="282" y="90"/>
      <point x="205" y="148"/>
      <point x="205" y="246" type="curve" smooth="yes"/>
      <point x="205" y="288" type="line" smooth="yes"/>
      <point x="205" y="390"/>
      <point x="279" y="450"/>
      <point x="365" y="450" type="curve" smooth="yes"/>
      <point x="460" y="450"/>
      <point x="524" y="380"/>
      <point x="524" y="272" type="curve" smooth="yes"/>
      <point x="524" y="167"/>
      <point x="460" y="90"/>
    </contour>
  </outline>
</glyph>
<glyph name="Hbar" format="2">
  <advance width="802"/>
  <unicode hex="0126"/>
  <anchor x="401" y="0" name="bottom"/>
  <anchor x="401" y="606" name="center"/>
  <anchor x="401" y="730" name="top"/>
  <outline>
    <contour>
      <point x="36" y="548" type="line"/>
      <point x="766" y="548" type="line"/>
      <point x="766" y="643" type="line"/>
      <point x="36" y="643" type="line"/>
    </contour>
    <component base="H"/>
  </outline>
</glyph>
<glyph name="lslash" format="2">
  <advance width="299"/>
  <unicode hex="0142"/>
  <anchor x="153" y="0" name="bottom"/>
  <anchor x="153" y="480" name="center"/>
  <anchor x="126" y="730" name="top"/>
  <anchor x="210" y="534" name="topright"/>
  <outline>
    <contour>
      <point x="16" y="209" type="line"/>
      <point x="125" y="271" type="line"/>
      <point x="125" y="363" type="line"/>
      <point x="16" y="302" type="line"/>
    </contour>
    <contour>
      <point x="181" y="299" type="line"/>
      <point x="288" y="359" type="line"/>
      <point x="288" y="452" type="line"/>
      <point x="181" y="391" type="line"/>
    </contour>
    <component base="l"/>
  </outline>
</glyph>
<glyph name="OE" format="2">
  <advance width="1051"/>
  <unicode hex="0152"/>
  <outline>
    <contour>
      <point x="437" y="-21" type="curve" smooth="yes"/>
      <point x="492" y="-21"/>
      <point x="539" y="-13"/>
      <point x="572" y="0" type="curve"/>
      <point x="676" y="0" type="line"/>
      <point x="676" y="730" type="line"/>
      <point x="572" y="730" type="line"/>
      <point x="538" y="742"/>
      <point x="490" y="751"/>
      <point x="437" y="751" type="curve" smooth="yes"/>
      <point x="174" y="751"/>
      <point x="50" y="556"/>
      <point x="50" y="377" type="curve" smooth="yes"/>
      <point x="50" y="355" type="line" smooth="yes"/>
      <point x="50" y="193"/>
      <point x="166" y="-21"/>
    </contour>
    <contour>
      <point x="437" y="97" type="curve" smooth="yes"/>
      <point x="278" y="97"/>
      <point x="182" y="221"/>
      <point x="182" y="365" type="curve" smooth="yes"/>
      <point x="182" y="515"/>
      <point x="278" y="633"/>
      <point x="437" y="633" type="curve" smooth="yes"/>
      <point x="485" y="633"/>
      <point x="538" y="623"/>
      <point x="574" y="604" type="curve"/>
      <point x="549" y="635" type="line"/>
      <point x="549" y="93" type="line"/>
      <point x="574" y="126" type="line"/>
      <point x="539" y="107"/>
      <point x="484" y="97"/>
    </contour>
    <contour>
      <point x="656" y="0" type="line"/>
      <point x="994" y="0" type="line"/>
      <point x="994" y="110" type="line"/>
      <point x="656" y="110" type="line"/>
    </contour>
    <contour>
      <point x="656" y="316" type="line"/>
      <point x="967" y="316" type="line"/>
      <point x="967" y="426" type="line"/>
      <point x="656" y="426" type="line"/>
    </contour>
    <contour>
      <point x="656" y="620" type="line"/>
      <point x="985" y="620" type="line"/>
      <point x="985" y="730" type="line"/>
      <point x="656" y="730" type="line"/>
    </contour>
  </outline>
</glyph>
<glyph name="jdotless" format="2">
  <advance width="327"/>
  <unicode hex="0237"/>
  <anchor x="160" y="-300" name="bottom"/>
  <anchor x="147" y="540" name="top"/>
  <outline>
    <contour>
      <point x="1" y="-205" type="line"/>
      <point x="37" y="-205" type="line" smooth="yes"/>
      <point x="185" y="-205"/>
      <point x="246" y="-154"/>
      <point x="246" y="-9" type="curve" smooth="yes"/>
      <point x="246" y="540" type="line"/>
      <point x="124" y="540" type="line"/>
      <point x="124" y="-18" type="line" smooth="yes"/>
      <point x="124" y="-68"/>
      <point x="96" y="-96"/>
      <point x="47" y="-96" type="curve" smooth="yes"/>
      <point x="1" y="-96" type="line"/>
    </contour>
    <contour>
      <point x="44" y="445" type="line"/>
      <point x="246" y="445" type="line"/>
      <point x="246" y="540" type="line"/>
      <point x="44" y="540" type="line"/>
    </contour>
  </outline>
</glyph>
<glyph name="gravecomb" format="2">
  <unicode hex="0300"/>
  <anchor x="159" y="540" name="_top"/>
  <anchor x="70" y="815" name="top"/>
  <outline>
    <contour>
      <point x="111" y="612" type="line"/>
      <point x="222" y="612" type="line"/>
      <point x="135" y="815" type="line"/>
      <point x="0" y="815" type="line"/>
    </contour>
  </outline>
</glyph>
<glyph name="circumflexcomb" format="2">
  <unicode hex="0302"/>
  <anchor x="181" y="540" name="_top"/>
  <anchor x="182" y="815" name="top"/>
  <outline>
    <contour>
      <point x="0" y="612" type="line"/>
      <point x="103" y="612" type="line"/>
      <point x="175" y="754" type="line"/>
      <point x="185" y="754" type="line"/>
      <point x="257" y="612" type="line"/>
      <point x="362" y="612" type="line"/>
      <point x="255" y="815" type="line"/>
      <point x="107" y="815" type="line"/>
    </contour>
  </outline>
</glyph>
<glyph name="hungarumlautcomb" format="2">
  <unicode hex="030B"/>
  <anchor x="136" y="540" name="_top"/>
  <anchor x="197" y="815" name="top"/>
  <outline>
    <contour>
      <point x="171" y="612" type="line"/>
      <point x="265" y="612" type="line"/>
      <point x="354" y="815" type="line"/>
      <point x="247" y="815" type="line"/>
    </contour>
    <contour>
      <point x="0" y="612" type="line"/>
      <point x="94" y="612" type="line"/>
      <point x="183" y="815" type="line"/>
      <point x="76" y="815" type="line"/>
    </contour>
  </outline>
</glyph>
<glyph name="cedillacomb" format="2">
  <unicode hex="0327"/>
  <anchor x="124" y="0" name="_bottom"/>
  <anchor x="121" y="-300" name="bottom"/>
  <outline>
    <contour>
      <point x="120" y="-255" type="curve" smooth="yes"/>
      <point x="210" y="-255"/>
      <point x="261" y="-206"/>
      <point x="261" y="-143" type="curve" smooth="yes"/>
      <point x="261" y="-79"/>
      <point x="208" y="-46"/>
      <point x="125" y="-46" type="curve" smooth="yes"/>
      <point x="110" y="-46" type="line"/>
      <point x="159" y="-86" type="line"/>
      <point x="159" y="11" type="line"/>
      <point x="83" y="11" type="line"/>
      <point x="83" y="-113" type="line"/>
      <point x="127" y="-113" type="line" smooth="yes"/>
      <point x="162" y="-113"/>
      <point x="176" y="-125"/>
      <point x="176" y="-142" type="curve" smooth="yes"/>
      <point x="176" y="-162"/>
      <point x="156" y="-175"/>
      <point x="117" y="-175" type="curve" smooth="yes"/>
      <point x="91" y="-175"/>
      <point x="65" y="-171"/>
      <point x="46" y="-165" type="curve"/>
      <point x="46" y="-245" type="line"/>
      <point x="63" y="-250"/>
      <point x="92" y="-255"/>
    </contour>
  </outline>
</glyph>
<glyph name="ogonekcomb" format="2">
  <unicode hex="0328"/>
  <anchor x="229" y="10" name="_ogonek"/>
  <outline>
    <contour>
      <point x="185" y="-242" type="curve" smooth="yes"/>
      <point x="206" y="-242"/>
      <point x="230" y="-238"/>
      <point x="245" y="-234" type="curve"/>
      <point x="245" y="-145" type="line"/>
      <point x="231" y="-150"/>
      <point x="213" y="-153"/>
      <point x="196" y="-153" type="curve" smooth="yes"/>
      <point x="166" y="-153"/>
      <point x="148" y="-138"/>
      <point x="148" y="-111" type="curve" smooth="yes"/>
      <point x="148" y="-83"/>
      <point x="165" y="-59"/>
      <point x="201" y="-28" type="curve" smooth="yes"/>
      <point x="231" y="0" type="line"/>
      <point x="183" y="54" type="line"/>
      <point x="153" y="27" type="line" smooth="yes"/>
      <point x="93" y="-25"/>
      <point x="59" y="-66"/>
      <point x="59" y="-127" type="curve" smooth="yes"/>
      <point x="59" y="-200"/>
      <point x="108" y="-242"/>
    </contour>
  </outline>
</glyph>
<glyph name="strokeshortcomb" format="2">
  <unicode hex="0335"/>
  <anchor x="150" y="267" name="_center"/>
  <outline>
    <contour>
      <point x="-28" y="230" type="line"/>
      <point x="328" y="230" type="line"/>
      <point x="328" y="304" type="line"/>
      <point x="-28" y="304" type="line"/>
    </contour>
  </outline>
</glyph>
<glyph name="riel-khmer" format="2">
  <advance width="526"/>
  <unicode hex="17DB"/>
  <outline>
    <contour>
      <point x="257" y="-7" type="curve" smooth="yes"/>
      <point x="368" y="-7" type="line"/>
      <point x="368" y="370" type="line"/>
      <point x="267" y="370" type="line"/>
      <point x="265" y="39" type="line"/>
      <point x="301" y="80" type="line"/>
      <point x="254" y="80" type="line" smooth="yes"/>
      <point x="204" y="80"/>
      <point x="165" y="102"/>
      <point x="165" y="146" type="curve" smooth="yes"/>
      <point x="165" y="190"/>
      <point x="205" y="208"/>
      <point x="273" y="208" type="curve"/>
      <point x="273" y="291" type="line"/>
      <point x="145" y="291"/>
      <point x="60" y="239"/>
      <point x="60" y="144" type="curve" smooth="yes"/>
      <point x="60" y="44"/>
      <point x="143" y="-7"/>
    </contour>
    <contour>
      <point x="128" y="346" type="line"/>
      <point x="485" y="346" type="line"/>
      <point x="485" y="426" type="line"/>
      <point x="128" y="426" type="line"/>
    </contour>
    <contour>
      <point x="267" y="402" type="line"/>
      <point x="368" y="402" type="line"/>
      <point x="368" y="437" type="line" smooth="yes"/>
      <point x="368" y="493"/>
      <point x="352" y="523"/>
      <point x="312" y="547" type="curve" smooth="yes"/>
      <point x="279" y="567"/>
      <point x="238" y="588"/>
      <point x="222" y="598" type="curve" smooth="yes"/>
      <point x="210" y="607"/>
      <point x="208" y="619"/>
      <point x="213" y="632" type="curve" smooth="yes"/>
      <point x="218" y="646"/>
      <point x="228" y="650"/>
      <point x="252" y="650" type="curve" smooth="yes"/>
      <point x="318" y="650"/>
      <point x="363" y="645"/>
      <point x="415" y="637" type="curve"/>
      <point x="415" y="731" type="line"/>
      <point x="363" y="738"/>
      <point x="308" y="742"/>
      <point x="260" y="742" type="curve" smooth="yes"/>
      <point x="183" y="742"/>
      <point x="141" y="728"/>
      <point x="118" y="675" type="curve" smooth="yes"/>
      <point x="95" y="620"/>
      <point x="102" y="564"/>
      <point x="157" y="529" type="curve" smooth="yes"/>
      <point x="179" y="515"/>
      <point x="216" y="496"/>
      <point x="243" y="479" type="curve" smooth="yes"/>
      <point x="260" y="467"/>
      <point x="267" y="454"/>
      <point x="267" y="437" type="curve" smooth="yes"/>
    </contour>
  </outline>
</glyph>
<glyph name="bullet" format="2">
  <advance width="433"/>
  <unicode hex="2022"/>
  <outline>
    <contour>
      <point x="90" y="156" type="line"/>
      <point x="344" y="156" type="line"/>
      <point x="344" y="421" type="line"/>
      <point x="90" y="421" type="line"/>
    </contour>
  </outline>
</glyph>
<glyph name="minute" format="2">
  <advance width="265"/>
  <unicode hex="2032"/>
  <outline>
    <contour>
      <point x="47" y="442" type="line"/>
      <point x="159" y="442" type="line"/>
      <point x="217" y="730" type="line"/>
      <point x="106" y="730" type="line"/>
    </contour>
  </outline>
</glyph>
<glyph name="guilsinglleft" format="2">
  <advance width="341"/>
  <unicode hex="2039"/>
  <guideline x="16" y="261" angle="0.0"/>
  <guideline x="16" y="483" angle="0.0"/>
  <guideline x="16" y="39" angle="0.0"/>
  <outline>
    <contour>
      <point x="161" y="39" type="line"/>
      <point x="298" y="39" type="line"/>
      <point x="159" y="249" type="line"/>
      <point x="159" y="273" type="line"/>
      <point x="298" y="483" type="line"/>
      <point x="167" y="483" type="line"/>
      <point x="30" y="281" type="line"/>
      <point x="30" y="236" type="line"/>
    </contour>
  </outline>
</glyph>
<glyph name="fi" format="2">
  <advance width="676"/>
  <unicode hex="FB01"/>
  <outline>
    <contour>
      <point x="96" y="0" type="line"/>
      <point x="214" y="0" type="line"/>
      <point x="214" y="576" type="line" smooth="yes"/>
      <point x="214" y="619"/>
      <point x="238" y="644"/>
      <point x="282" y="644" type="curve" smooth="yes"/>
      <point x="351" y="644" type="line"/>
      <point x="351" y="743" type="line"/>
      <point x="293" y="743" type="line" smooth="yes"/>
      <point x="163" y="743"/>
      <point x="96" y="686"/>
      <point x="96" y="563" type="curve" smooth="yes"/>
    </contour>
    <contour>
      <point x="26" y="445" type="line"/>
      <point x="344" y="445" type="line"/>
      <point x="344" y="538" type="line"/>
      <point x="26" y="538" type="line"/>
    </contour>
    <contour>
      <point x="465" y="0" type="line"/>
      <point x="591" y="0" type="line"/>
      <point x="591" y="540" type="line"/>
      <point x="465" y="540" type="line"/>
    </contour>
    <contour>
      <point x="393" y="445" type="line"/>
      <point x="591" y="445" type="line"/>
      <point x="591" y="540" type="line"/>
      <point x="393" y="540" type="line"/>
    </contour>
    <contour>
      <point x="508" y="612" type="curve" smooth="yes"/>
      <point x="559" y="612"/>
      <point x="583" y="641"/>
      <point x="583" y="682" type="curve" smooth="yes"/>
      <point x="583" y="724"/>
      <point x="559" y="753"/>
      <point x="508" y="753" type="curve" smooth="yes"/>
      <point x="457" y="753"/>
      <point x="434" y="724"/>
      <point x="434" y="682" type="curve" smooth="yes"/>
      <point x="434" y="641"/>
      <point x="457" y="612"/>
    </contour>
  </outline>
</glyph>
<glyph name="I.salt" format="2">
  <advance width="452"/>
  <anchor x="226" y="0" name="bottom"/>
  <anchor x="290" y="10" name="ogonek"/>
  <anchor x="226" y="730" name="top"/>
  <outline>
    <contour>
      <point x="162" y="83" type="line"/>
      <point x="290" y="83" type="line"/>
      <point x="290" y="647" type="line"/>
      <point x="162" y="647" type="line"/>
    </contour>
    <contour>
      <point x="78" y="0" type="line"/>
      <point x="375" y="0" type="line"/>
      <point x="375" y="103" type="line"/>
      <point x="78" y="103" type="line"/>
    </contour>
    <contour>
      <point x="78" y="627" type="line"/>
      <point x="375" y="627" type="line"/>
      <point x="375" y="730" type="line"/>
      <point x="78" y="730" type="line"/>
    </contour>
  </outline>
</glyph>
<glyph name="braceleft.case" format="2">
  <advance width="384"/>
  <outline>
    <contour>
      <point x="318" y="-118" type="curve" smooth="yes"/>
      <point x="343" y="-118" type="line"/>
      <point x="343" y="-15" type="line"/>
      <point x="318" y="-15" type="line" smooth="yes"/>
      <point x="267" y="-15"/>
      <point x="241" y="13"/>
      <point x="241" y="69" type="curve" smooth="yes"/>
      <point x="241" y="224" type="line" smooth="yes"/>
      <point x="241" y="298"/>
      <point x="207" y="333"/>
      <point x="143" y="341" type="curve"/>
      <point x="143" y="351" type="line"/>
      <point x="207" y="359"/>
      <point x="241" y="394"/>
      <point x="241" y="468" type="curve" smooth="yes"/>
      <point x="241" y="619" type="line" smooth="yes"/>
      <point x="241" y="675"/>
      <point x="267" y="703"/>
      <point x="318" y="703" type="curve" smooth="yes"/>
      <point x="343" y="703" type="line"/>
      <point x="343" y="806" type="line"/>
      <point x="318" y="806" type="line" smooth="yes"/>
      <point x="199" y="806"/>
      <point x="121" y="743"/>
      <point x="121" y="616" type="curve" smooth="yes"/>
      <point x="121" y="466" type="line" smooth="yes"/>
      <point x="121" y="425"/>
      <point x="94" y="403"/>
      <point x="50" y="403" type="curve"/>
      <point x="50" y="289" type="line"/>
      <point x="94" y="289"/>
      <point x="121" y="267"/>
      <point x="121" y="226" type="curve" smooth="yes"/>
      <point x="121" y="72" type="line" smooth="yes"/>
      <point x="121" y="-55"/>
      <point x="199" y="-118"/>
    </contour>
  </outline>
</glyph>
<glyph name="bracketleft.case" format="2">
  <advance width="384"/>
  <outline>
    <contour>
      <point x="99" y="-118" type="line"/>
      <point x="219" y="-118" type="line"/>
      <point x="219" y="806" type="line"/>
      <point x="99" y="806" type="line"/>
    </contour>
    <contour>
      <point x="171" y="-118" type="line"/>
      <point x="335" y="-118" type="line"/>
      <point x="335" y="-15" type="line"/>
      <point x="171" y="-15" type="line"/>
    </contour>
    <contour>
      <point x="171" y="703" type="line"/>
      <point x="335" y="703" type="line"/>
      <point x="335" y="806" type="line"/>
      <point x="171" y="806" type="line"/>
    </contour>
  </outline>
</glyph>
<glyph name="cedillacomb.case" format="2">
  <anchor x="81" y="0" name="_bottom"/>
  <anchor x="83" y="-300" name="bottom"/>
  <outline>
    <contour>
      <point x="78" y="-261" type="curve" smooth="yes"/>
      <point x="172" y="-261"/>
      <point x="227" y="-209"/>
      <point x="227" y="-145" type="curve" smooth="yes"/>
      <point x="227" y="-80"/>
      <point x="171" y="-46"/>
      <point x="85" y="-46" type="curve" smooth="yes"/>
      <point x="70" y="-46" type="line"/>
      <point x="122" y="-86" type="line"/>
      <point x="122" y="11" type="line"/>
      <point x="40" y="11" type="line"/>
      <point x="40" y="-116" type="line"/>
      <point x="87" y="-116" type="line" smooth="yes"/>
      <point x="121" y="-116"/>
      <point x="139" y="-127"/>
      <point x="139" y="-144" type="curve" smooth="yes"/>
      <point x="139" y="-164"/>
      <point x="118" y="-177"/>
      <point x="75" y="-177" type="curve" smooth="yes"/>
      <point x="49" y="-177"/>
      <point x="20" y="-173"/>
      <point x="0" y="-166" type="curve"/>
      <point x="0" y="-250" type="line"/>
      <point x="19" y="-257"/>
      <point x="49" y="-261"/>
    </contour>
  </outline>
</glyph>
<glyph name="cent.tnum" format="2">
  <advance width="659"/>
  <outline>
    <contour>
      <point x="342" y="99" type="curve" smooth="yes"/>
      <point x="481" y="99"/>
      <point x="587" y="176"/>
      <point x="598" y="303" type="curve"/>
      <point x="478" y="303" type="line"/>
      <point x="470" y="246"/>
      <point x="417" y="204"/>
      <point x="341" y="204" type="curve" smooth="yes"/>
      <point x="243" y="204"/>
      <point x="192" y="271"/>
      <point x="192" y="367" type="curve" smooth="yes"/>
      <point x="192" y="465"/>
      <point x="247" y="530"/>
      <point x="341" y="530" type="curve" smooth="yes"/>
      <point x="415" y="530"/>
      <point x="464" y="490"/>
      <point x="473" y="435" type="curve"/>
      <point x="592" y="435" type="line"/>
      <point x="579" y="563"/>
      <point x="480" y="636"/>
      <point x="342" y="636" type="curve" smooth="yes"/>
      <point x="163" y="636"/>
      <point x="69" y="513"/>
      <point x="69" y="377" type="curve" smooth="yes"/>
      <point x="69" y="357" type="line" smooth="yes"/>
      <point x="69" y="225"/>
      <point x="160" y="99"/>
    </contour>
    <contour>
      <point x="289" y="0" type="line"/>
      <point x="396" y="0" type="line"/>
      <point x="396" y="146" type="line"/>
      <point x="289" y="146" type="line"/>
    </contour>
    <contour>
      <point x="289" y="581" type="line"/>
      <point x="396" y="581" type="line"/>
      <point x="396" y="727" type="line"/>
      <point x="289" y="727" type="line"/>
    </contour>
  </outline>
</glyph>
<glyph name="commaaccentcomb.case" format="2">
  <anchor x="73" y="0" name="_bottom"/>
  <anchor x="77" y="-300" name="bottom"/>
  <outline>
    <contour>
      <point x="3" y="-294" type="line"/>
      <point x="19" y="-294" type="line" smooth="yes"/>
      <point x="101" y="-294"/>
      <point x="156" y="-247"/>
      <point x="156" y="-161" type="curve" smooth="yes"/>
      <point x="156" y="-155" type="line" smooth="yes"/>
      <point x="156" y="-85"/>
      <point x="120" y="-48"/>
      <point x="70" y="-48" type="curve" smooth="yes"/>
      <point x="34" y="-48"/>
      <point x="1" y="-68"/>
      <point x="1" y="-111" type="curve" smooth="yes"/>
      <point x="1" y="-150"/>
      <point x="28" y="-170"/>
      <point x="61" y="-170" type="curve" smooth="yes"/>
      <point x="87" y="-170"/>
      <point x="103" y="-157"/>
      <point x="112" y="-143" type="curve"/>
      <point x="88" y="-137" type="line"/>
      <point x="88" y="-164" type="line" smooth="yes"/>
      <point x="88" y="-204"/>
      <point x="66" y="-233"/>
      <point x="21" y="-233" type="curve" smooth="yes"/>
      <point x="3" y="-233" type="line"/>
    </contour>
  </outline>
</glyph>
<glyph name="commaturnedabovecomb.case" format="2">
  <anchor x="81" y="720" name="_top"/>
  <anchor x="81" y="916" name="top"/>
  <outline>
    <contour>
      <point x="85" y="757" type="curve" smooth="yes"/>
      <point x="121" y="757"/>
      <point x="153" y="775"/>
      <point x="153" y="817" type="curve" smooth="yes"/>
      <point x="153" y="855"/>
      <point x="128" y="873"/>
      <point x="94" y="873" type="curve" smooth="yes"/>
      <point x="69" y="873"/>
      <point x="52" y="863"/>
      <point x="44" y="847" type="curve"/>
      <point x="67" y="844" type="line"/>
      <point x="67" y="871" type="line" smooth="yes"/>
      <point x="66" y="904"/>
      <point x="88" y="925"/>
      <point x="133" y="925" type="curve" smooth="yes"/>
      <point x="149" y="925" type="line"/>
      <point x="149" y="985" type="line"/>
      <point x="135" y="985" type="line" smooth="yes"/>
      <point x="52" y="985"/>
      <point x="0" y="946"/>
      <point x="0" y="867" type="curve" smooth="yes"/>
      <point x="0" y="861" type="line" smooth="yes"/>
      <point x="0" y="794"/>
      <point x="32" y="757"/>
    </contour>
  </outline>
</glyph>
<glyph name="eight.tnum" format="2">
  <advance width="659"/>
  <outline>
    <contour>
      <point x="330" y="-19" type="curve" smooth="yes"/>
      <point x="496" y="-19"/>
      <point x="610" y="66"/>
      <point x="610" y="203" type="curve" smooth="yes"/>
      <point x="610" y="292"/>
      <point x="557" y="356"/>
      <point x="482" y="384" type="curve"/>
      <point x="482" y="396" type="line"/>
      <point x="541" y="421"/>
      <point x="587" y="472"/>
      <point x="587" y="550" type="curve" smooth="yes"/>
      <point x="587" y="679"/>
      <point x="474" y="749"/>
      <point x="330" y="749" type="curve" smooth="yes"/>
      <point x="185" y="749"/>
      <point x="72" y="679"/>
      <point x="72" y="550" type="curve" smooth="yes"/>
      <point x="72" y="472"/>
      <point x="118" y="421"/>
      <point x="178" y="396" type="curve"/>
      <point x="178" y="384" type="line"/>
      <point x="102" y="356"/>
      <point x="49" y="291"/>
      <point x="49" y="203" type="curve" smooth="yes"/>
      <point x="49" y="66"/>
      <point x="163" y="-19"/>
    </contour>
    <contour>
      <point x="330" y="87" type="curve" smooth="yes"/>
      <point x="233" y="87"/>
      <point x="173" y="133"/>
      <point x="173" y="214" type="curve" smooth="yes"/>
      <point x="173" y="294"/>
      <point x="232" y="341"/>
      <point x="330" y="341" type="curve" smooth="yes"/>
      <point x="427" y="341"/>
      <point x="486" y="294"/>
      <point x="486" y="214" type="curve" smooth="yes"/>
      <point x="486" y="133"/>
      <point x="426" y="87"/>
    </contour>
    <contour>
      <point x="330" y="437" type="curve" smooth="yes"/>
      <point x="249" y="437"/>
      <point x="196" y="471"/>
      <point x="196" y="541" type="curve" smooth="yes"/>
      <point x="196" y="610"/>
      <point x="248" y="643"/>
      <point x="330" y="643" type="curve" smooth="yes"/>
      <point x="411" y="643"/>
      <point x="463" y="610"/>
      <point x="463" y="541" type="curve" smooth="yes"/>
      <point x="463" y="471"/>
      <point x="410" y="437"/>
    </contour>
  </outline>
</glyph>
<glyph name="equal.tnum" format="2">
  <advance width="659"/>
  <outline>
    <contour>
      <point x="80" y="377" type="line"/>
      <point x="579" y="377" type="line"/>
      <point x="579" y="478" type="line"/>
      <point x="80" y="478" type="line"/>
    </contour>
    <contour>
      <point x="80" y="182" type="line"/>
      <point x="579" y="182" type="line"/>
      <point x="579" y="283" type="line"/>
      <point x="80" y="283" type="line"/>
    </contour>
  </outline>
</glyph>
<glyph name="f.salt" format="2">
  <advance width="384"/>
  <outline>
    <contour>
      <point x="96" y="0" type="line"/>
      <point x="214" y="0" type="line"/>
      <point x="214" y="610" type="line" smooth="yes"/>
      <point x="214" y="636"/>
      <point x="228" y="656"/>
      <point x="257" y="656" type="curve" smooth="yes"/>
      <point x="285" y="656"/>
      <point x="301" y="636"/>
      <point x="301" y="610" type="curve"/>
      <point x="400" y="610" type="line"/>
      <point x="400" y="693"/>
      <point x="345" y="748"/>
      <point x="250" y="748" type="curve" smooth="yes"/>
      <point x="155" y="748"/>
      <point x="96" y="693"/>
      <point x="96" y="606" type="curve" smooth="yes"/>
    </contour>
    <contour>
      <point x="26" y="437" type="line"/>
      <point x="367" y="437" type="line"/>
      <point x="367" y="530" type="line"/>
      <point x="26" y="530" type="line"/>
    </contour>
  </outline>
</glyph>
<glyph name="f_j" format="2">
  <advance width="677"/>
  <outline>
    <contour>
      <point x="96" y="0" type="line"/>
      <point x="214" y="0" type="line"/>
      <point x="214" y="576" type="line" smooth="yes"/>
      <point x="214" y="619"/>
      <point x="238" y="644"/>
      <point x="282" y="644" type="curve" smooth="yes"/>
      <point x="346" y="644" type="line"/>
      <point x="346" y="743" type="line"/>
      <point x="293" y="743" type="line" smooth="yes"/>
      <point x="163" y="743"/>
      <point x="96" y="686"/>
      <point x="96" y="563" type="curve" smooth="yes"/>
    </contour>
    <contour>
      <point x="350" y="-201" type="line"/>
      <point x="386" y="-201" type="line" smooth="yes"/>
      <point x="535" y="-201"/>
      <point x="595" y="-150"/>
      <point x="595" y="-5" type="curve" smooth="yes"/>
      <point x="595" y="540" type="line"/>
      <point x="474" y="540" type="line"/>
      <point x="474" y="-15" type="line" smooth="yes"/>
      <point x="474" y="-64"/>
      <point x="446" y="-92"/>
      <point x="396" y="-92" type="curve" smooth="yes"/>
      <point x="350" y="-92" type="line"/>
    </contour>
    <contour>
      <point x="26" y="445" type="line"/>
      <point x="352" y="445" type="line"/>
      <point x="352" y="538" type="line"/>
      <point x="26" y="538" type="line"/>
    </contour>
    <contour>
      <point x="401" y="445" type="line"/>
      <point x="595" y="445" type="line"/>
      <point x="595" y="540" type="line"/>
      <point x="401" y="540" type="line"/>
    </contour>
    <contour>
      <point x="513" y="617" type="curve" smooth="yes"/>
      <point x="564" y="617"/>
      <point x="587" y="646"/>
      <point x="587" y="688" type="curve" smooth="yes"/>
      <point x="587" y="729"/>
      <point x="564" y="758"/>
      <point x="513" y="758" type="curve" smooth="yes"/>
      <point x="462" y="758"/>
      <point x="438" y="729"/>
      <point x="438" y="688" type="curve" smooth="yes"/>
      <point x="438" y="646"/>
      <point x="462" y="617"/>
    </contour>
  </outline>
</glyph>
<glyph name="f_j.salt" format="2">
  <advance width="677"/>
  <outline>
    <contour>
      <point x="96" y="0" type="line"/>
      <point x="214" y="0" type="line"/>
      <point x="214" y="611" type="line" smooth="yes"/>
      <point x="214" y="636"/>
      <point x="228" y="656"/>
      <point x="255" y="656" type="curve" smooth="yes"/>
      <point x="282" y="656"/>
      <point x="298" y="636"/>
      <point x="298" y="611" type="curve"/>
      <point x="394" y="611" type="line"/>
      <point x="394" y="694"/>
      <point x="341" y="748"/>
      <point x="248" y="748" type="curve" smooth="yes"/>
      <point x="153" y="748"/>
      <point x="96" y="693"/>
      <point x="96" y="607" type="curve" smooth="yes"/>
    </contour>
    <contour>
      <point x="350" y="-201" type="line"/>
      <point x="386" y="-201" type="line" smooth="yes"/>
      <point x="535" y="-201"/>
      <point x="595" y="-150"/>
      <point x="595" y="-5" type="curve" smooth="yes"/>
      <point x="595" y="540" type="line"/>
      <point x="474" y="540" type="line"/>
      <point x="474" y="-15" type="line" smooth="yes"/>
      <point x="474" y="-64"/>
      <point x="446" y="-92"/>
      <point x="396" y="-92" type="curve" smooth="yes"/>
      <point x="350" y="-92" type="line"/>
    </contour>
    <contour>
      <point x="26" y="443" type="line"/>
      <point x="352" y="443" type="line"/>
      <point x="352" y="536" type="line"/>
      <point x="26" y="536" type="line"/>
    </contour>
    <contour>
      <point x="403" y="445" type="line"/>
      <point x="595" y="445" type="line"/>
      <point x="595" y="540" type="line"/>
      <point x="403" y="540" type="line"/>
    </contour>
    <contour>
      <point x="517" y="618" type="curve" smooth="yes"/>
      <point x="568" y="618"/>
      <point x="591" y="647"/>
      <point x="591" y="688" type="curve" smooth="yes"/>
      <point x="591" y="729"/>
      <point x="568" y="758"/>
      <point x="517" y="758" type="curve" smooth="yes"/>
      <point x="467" y="758"/>
      <point x="443" y="729"/>
      <point x="443" y="688" type="curve" smooth="yes"/>
      <point x="443" y="647"/>
      <point x="467" y="618"/>
    </contour>
  </outline>
</glyph>
<glyph name="five.tnum" format="2">
  <advance width="659"/>
  <outline>
    <contour>
      <point x="337" y="-19" type="curve" smooth="yes"/>
      <point x="512" y="-19"/>
      <point x="611" y="101"/>
      <point x="611" y="227" type="curve" smooth="yes"/>
      <point x="611" y="240" type="line" smooth="yes"/>
      <point x="611" y="366"/>
      <point x="516" y="479"/>
      <point x="353" y="479" type="curve" smooth="yes"/>
      <point x="269" y="479"/>
      <point x="214" y="449"/>
      <point x="177" y="406" type="curve"/>
      <point x="207" y="397" type="line"/>
      <point x="232" y="658" type="line"/>
      <point x="192" y="621" type="line"/>
      <point x="548" y="621" type="line"/>
      <point x="548" y="730" type="line"/>
      <point x="129" y="730" type="line"/>
      <point x="92" y="331" type="line"/>
      <point x="212" y="331" type="line"/>
      <point x="237" y="361"/>
      <point x="289" y="381"/>
      <point x="338" y="381" type="curve" smooth="yes"/>
      <point x="428" y="381"/>
      <point x="488" y="317"/>
      <point x="488" y="234" type="curve" smooth="yes"/>
      <point x="488" y="151"/>
      <point x="429" y="90"/>
      <point x="338" y="90" type="curve" smooth="yes"/>
      <point x="248" y="90"/>
      <point x="187" y="146"/>
      <point x="187" y="228" type="curve"/>
      <point x="64" y="228" type="line"/>
      <point x="64" y="97"/>
      <point x="165" y="-19"/>
    </contour>
  </outline>
</glyph>
<glyph name="fl.salt" format="2">
  <advance width="691"/>
  <outline>
    <contour>
      <point x="96" y="0" type="line"/>
      <point x="214" y="0" type="line"/>
      <point x="214" y="610" type="line" smooth="yes"/>
      <point x="214" y="635"/>
      <point x="227" y="656"/>
      <point x="254" y="656" type="curve" smooth="yes"/>
      <point x="281" y="656"/>
      <point x="295" y="635"/>
      <point x="295" y="610" type="curve"/>
      <point x="391" y="610" type="line"/>
      <point x="391" y="693"/>
      <point x="340" y="748"/>
      <point x="247" y="748" type="curve" smooth="yes"/>
      <point x="151" y="748"/>
      <point x="96" y="691"/>
      <point x="96" y="606" type="curve" smooth="yes"/>
    </contour>
    <contour>
      <point x="26" y="437" type="line"/>
      <point x="360" y="437" type="line"/>
      <point x="360" y="530" type="line"/>
      <point x="26" y="530" type="line"/>
    </contour>
    <contour>
      <point x="603" y="-6" type="curve" smooth="yes"/>
      <point x="659" y="-6" type="line"/>
      <point x="659" y="102" type="line"/>
      <point x="606" y="102" type="line" smooth="yes"/>
      <point x="581" y="102"/>
      <point x="568" y="115"/>
      <point x="568" y="139" type="curve" smooth="yes"/>
      <point x="568" y="730" type="line"/>
      <point x="442" y="730" type="line"/>
      <point x="442" y="142" type="line" smooth="yes"/>
      <point x="442" y="36"/>
      <point x="493" y="-6"/>
    </contour>
  </outline>
</glyph>
<glyph name="hungarumlautcomb.case" format="2">
  <anchor x="146" y="730" name="_top"/>
  <anchor x="229" y="958" name="top"/>
  <outline>
    <contour>
      <point x="175" y="787" type="line"/>
      <point x="269" y="787" type="line"/>
      <point x="377" y="958" type="line"/>
      <point x="262" y="958" type="line"/>
    </contour>
    <contour>
      <point x="0" y="787" type="line"/>
      <point x="94" y="787" type="line"/>
      <point x="202" y="958" type="line"/>
      <point x="87" y="958" type="line"/>
    </contour>
  </outline>
</glyph>
<glyph name="hyphen.case" format="2">
  <advance width="506"/>
  <outline>
    <contour>
      <point x="56" y="315" type="line"/>
      <point x="451" y="315" type="line"/>
      <point x="451" y="426" type="line"/>
      <point x="56" y="426" type="line"/>
    </contour>
  </outline>
</glyph>
<glyph name="l.salt" format="2">
  <advance width="316"/>
  <anchor x="174" y="0" name="bottom"/>
  <anchor x="162" y="480" name="center"/>
  <anchor x="131" y="730" name="top"/>
  <anchor x="188" y="534" name="topright"/>
  <outline>
    <contour>
      <point x="228" y="-6" type="curve" smooth="yes"/>
      <point x="284" y="-6" type="line"/>
      <point x="284" y="102" type="line"/>
      <point x="231" y="102" type="line" smooth="yes"/>
      <point x="207" y="102"/>
      <point x="194" y="115"/>
      <point x="194" y="139" type="curve" smooth="yes"/>
      <point x="194" y="730" type="line"/>
      <point x="68" y="730" type="line"/>
      <point x="68" y="142" type="line" smooth="yes"/>
      <point x="68" y="36"/>
      <point x="118" y="-6"/>
    </contour>
  </outline>
</glyph>
<glyph name="multiply.tnum" format="2">
  <advance width="659"/>
  <outline>
    <contour>
      <point x="153" y="98" type="line"/>
      <point x="83" y="168" type="line"/>
      <point x="506" y="591" type="line"/>
      <point x="576" y="521" type="line"/>
    </contour>
    <contour>
      <point x="502" y="98" type="line"/>
      <point x="83" y="517" type="line"/>
      <point x="157" y="591" type="line"/>
      <point x="576" y="172" type="line"/>
    </contour>
  </outline>
</glyph>
<glyph name="riel-khmer.tnum" format="2">
  <advance width="659"/>
  <outline>
    <contour>
      <point x="324" y="-7" type="curve" smooth="yes"/>
      <point x="437" y="-7" type="line"/>
      <point x="437" y="370" type="line"/>
      <point x="335" y="370" type="line"/>
      <point x="333" y="39" type="line"/>
      <point x="370" y="80" type="line"/>
      <point x="321" y="80" type="line" smooth="yes"/>
      <point x="260" y="80"/>
      <point x="219" y="102"/>
      <point x="219" y="146" type="curve" smooth="yes"/>
      <point x="219" y="191"/>
      <point x="262" y="208"/>
      <point x="342" y="208" type="curve"/>
      <point x="342" y="291" type="line"/>
      <point x="203" y="291"/>
      <point x="116" y="239"/>
      <point x="116" y="144" type="curve" smooth="yes"/>
      <point x="116" y="44"/>
      <point x="201" y="-7"/>
    </contour>
    <contour>
      <point x="182" y="346" type="line"/>
      <point x="562" y="346" type="line"/>
      <point x="562" y="426" type="line"/>
      <point x="182" y="426" type="line"/>
    </contour>
    <contour>
      <point x="335" y="402" type="line"/>
      <point x="437" y="402" type="line"/>
      <point x="437" y="437" type="line" smooth="yes"/>
      <point x="437" y="492"/>
      <point x="420" y="523"/>
      <point x="380" y="546" type="curve" smooth="yes"/>
      <point x="347" y="565"/>
      <point x="304" y="587"/>
      <point x="286" y="598" type="curve" smooth="yes"/>
      <point x="273" y="607"/>
      <point x="271" y="618"/>
      <point x="277" y="632" type="curve" smooth="yes"/>
      <point x="282" y="645"/>
      <point x="292" y="650"/>
      <point x="319" y="650" type="curve" smooth="yes"/>
      <point x="383" y="650"/>
      <point x="432" y="645"/>
      <point x="487" y="637" type="curve"/>
      <point x="487" y="731" type="line"/>
      <point x="433" y="738"/>
      <point x="377" y="742"/>
      <point x="327" y="742" type="curve" smooth="yes"/>
      <point x="248" y="742"/>
      <point x="205" y="728"/>
      <point x="182" y="675" type="curve" smooth="yes"/>
      <point x="157" y="620"/>
      <point x="165" y="564"/>
      <point x="221" y="529" type="curve" smooth="yes"/>
      <point x="244" y="514"/>
      <point x="284" y="494"/>
      <point x="308" y="479" type="curve" smooth="yes"/>
      <point x="328" y="467"/>
      <point x="335" y="454"/>
      <point x="335" y="437" type="curve" smooth="yes"/>
    </contour>
  </outline>
</glyph>
<glyph name="t.salt" format="2">
  <advance width="464"/>
  <anchor x="261" y="0" name="bottom"/>
  <anchor x="204" y="291" name="center"/>
  <anchor x="208" y="593" name="top"/>
  <anchor x="224" y="576" name="topright"/>
  <outline>
    <contour>
      <point x="272" y="-14" type="curve" smooth="yes"/>
      <point x="380" y="-14"/>
      <point x="440" y="53"/>
      <point x="440" y="159" type="curve"/>
      <point x="344" y="159" type="line"/>
      <point x="344" y="110"/>
      <point x="317" y="87"/>
      <point x="280" y="87" type="curve" smooth="yes"/>
      <point x="243" y="87"/>
      <point x="217" y="110"/>
      <point x="217" y="159" type="curve" smooth="yes"/>
      <point x="217" y="494" type="line"/>
      <point x="98" y="494" type="line"/>
      <point x="98" y="163" type="line" smooth="yes"/>
      <point x="98" y="49"/>
      <point x="166" y="-14"/>
    </contour>
    <contour>
      <point x="11" y="447" type="line"/>
      <point x="418" y="447" type="line"/>
      <point x="418" y="540" type="line"/>
      <point x="11" y="540" type="line"/>
    </contour>
    <contour>
      <point x="98" y="502" type="line"/>
      <point x="217" y="502" type="line"/>
      <point x="217" y="699" type="line"/>
      <point x="98" y="699" type="line"/>
    </contour>
  </outline>
</glyph>
<glyph name="u.salt" format="2">
  <advance width="622"/>
  <anchor x="311" y="0" name="bottom"/>
  <anchor x="415" y="10" name="ogonek"/>
  <anchor x="311" y="534" name="top"/>
  <anchor x="599" y="534" name="topright"/>
  <outline>
    <contour>
      <point x="311" y="-19" type="curve" smooth="yes"/>
      <point x="454" y="-19"/>
      <point x="553" y="65"/>
      <point x="553" y="226" type="curve" smooth="yes"/>
      <point x="553" y="540" type="line"/>
      <point x="427" y="540" type="line"/>
      <point x="427" y="213" type="line" smooth="yes"/>
      <point x="427" y="139"/>
      <point x="381" y="95"/>
      <point x="311" y="95" type="curve" smooth="yes"/>
      <point x="242" y="95"/>
      <point x="195" y="139"/>
      <point x="195" y="213" type="curve" smooth="yes"/>
      <point x="195" y="540" type="line"/>
      <point x="69" y="540" type="line"/>
      <point x="69" y="226" type="line" smooth="yes"/>
      <point x="69" y="65"/>
      <point x="168" y="-19"/>
    </contour>
  </outline>
</glyph>
<glyph name="yen.tnum" format="2">
  <advance width="659"/>
  <outline>
    <contour>
      <point x="245" y="303" type="line"/>
      <point x="429" y="303" type="line"/>
      <point x="625" y="730" type="line"/>
      <point x="500" y="730" type="line"/>
      <point x="351" y="389" type="line"/>
      <point x="388" y="398" type="line"/>
      <point x="294" y="398" type="line"/>
      <point x="328" y="389" type="line"/>
      <point x="166" y="730" type="line"/>
      <point x="34" y="730" type="line"/>
    </contour>
    <contour>
      <point x="278" y="0" type="line"/>
      <point x="396" y="0" type="line"/>
      <point x="396" y="325" type="line"/>
      <point x="278" y="325" type="line"/>
    </contour>
    <contour>
      <point x="71" y="151" type="line"/>
      <point x="602" y="151" type="line"/>
      <point x="602" y="224" type="line"/>
      <point x="71" y="224" type="line"/>
    </contour>
    <contour>
      <point x="71" y="303" type="line"/>
      <point x="602" y="303" type="line"/>
      <point x="602" y="376" type="line"/>
      <point x="71" y="376" type="line"/>
    </contour>
  </outline>
</glyph>
